<svg xmlns="http://www.w3.org/2000/svg" viewBox="0 0 92.43 35.67"><defs><style>.cls-1{fill:#221f1f;}.cls-2{fill:#ff4c00;}</style></defs><title>Asset 2</title><g id="Layer_2" data-name="Layer 2"><g id="Layer_1-2" data-name="Layer 1"><polyline class="cls-1" points="21.22 0.69 0 0.69 0 9.58 6.01 9.58 6.01 35.34 15.14 35.34 15.14 9.58 21.22 9.58 21.22 0.69"/><polyline class="cls-1" points="45.41 35.34 36.15 35.34 33.23 13.6 30.58 35.34 21.35 35.34 26.5 0.69 39.71 0.69 45.41 35.34"/><path class="cls-1" d="M59.63,15.51h8.78V7.92S67.55,0,58.29,0c-10.17,0-11,8-11,8V27.48s.39,8.1,10.43,8.1,10.66-8,10.66-8V20.92H59.63v6s.2,2.85-1.76,2.85-1.53-2.47-1.53-2.47V7.54A1.62,1.62,0,0,1,58,5.86c1.77,0,1.54,1.92,1.54,1.92l0,7.73"/><path class="cls-1" d="M92.43,15.6V8S91.57.09,82.32.09c-10.17,0-11,8-11,8V27.57s.39,8.1,10.43,8.1,10.66-8,10.66-8V15.6M83.65,27s.2,2.86-1.76,2.86-1.53-2.47-1.53-2.47V7.63a1.61,1.61,0,0,1,1.71-1.69c1.78,0,1.54,1.92,1.54,1.92Z"/><polyline class="cls-2" points="15.35 0.67 0 0.67 0 9.59 6.02 9.59 15.35 0.67"/></g></g></svg>